{"title":"Faster 2010 720p BRRip x264 Feel-Free","uid":6171112,"size":2365245077,"categoryP":"video","categoryS":"hd___movies","magnet":"?xt=urn:btih:936d7b9db72e7257537cf0cb9e99e1c272c0663d&amp;dn=Faster+2010+720p+BRRip+x264+Feel-Free&amp;tr=udp%3A%2F%2Ftracker.openbittorrent.com%3A80&amp;tr=udp%3A%2F%2Fopen.demonii.com%3A1337&amp;tr=udp%3A%2F%2Ftracker.coppersurfer.tk%3A6969&amp;tr=udp%3A%2F%2Fexodus.desync.com%3A6969","seeders":0,"leechers":0,"uploader":"neon","files":-1,"time":1297582814,"description":"Genre:Action | Crime | Drama\nLanguage:English\n &lt;a href=&quot; http://www.imdb.com/title/tt1433108/&quot; rel=&quot;nofollow&quot; target=&quot;_NEW&quot;&gt; http://www.imdb.com/title/tt1433108/&lt;/a&gt;\nSource:1080p.BluRay.x264-SECTOR7\nSubtitles:Romana\n\n\nFormat                           : MPEG-4\nFormat profile                   : Base Media\nCodec ID                         : isom\nFile size                        : 2.19 GiB\nDuration                         : 1h 37mn\nOverall bit rate                 : 3 206 Kbps\n\n\nVideo\nFormat settings, CABAC           : Yes\nFormat settings, ReFrames        : 3 frames\nCodec ID                         : avc1\nCodec ID/Info                    : Advanced Video Coding\nDuration                         : 1h 37mn\nBit rate mode                    : Variable\nBit rate                         : 2 815 Kbps\nMaximum bit rate                 : 12.7 Mbps\nWidth                            : 1 280 pixels\nHeight                           : 544 pixels\nDisplay aspect ratio             : 2.35:1\nFrame rate mode                  : Constant\nFrame rate                       : 23.976 fps\nColor space                      : YUV\nChroma subsampling               : 4:2:0\nBit depth                        : 8 bits\nScan type                        : Progressive\nBits/(Pixel*Frame)               : 0.169\nStream size                      : 1.89 GiB (86%)\nWriting library                  : x264\n\nAudio\nID                               : 2\nFormat                           : AAC\nFormat/Info                      : Advanced Audio Codec\nFormat version                   : Version 4\nFormat profile                   : LC\nFormat settings, SBR             : No\nCodec ID                         : 40\nDuration                         : 1h 37mn\nBit rate mode                    : Variable\nBit rate                         : 440 Kbps\nMaximum bit rate                 : 632 Kbps\nChannel(s)                       : 6 channels\nChannel positions                : Front: L C R, Side: L R, LFE\nSampling rate                    : 48.0 KHz\nStream size                      : 308 MiB (14%)\n\n \nPlot:\n An ex-con sets out to avenge his brother's death after they were double-crossed during a heist years ago. During his campaign, however, he's tracked by a veteran cop and an egocentric hit man.\n\n","torrent":{"xt":"urn:btih:936d7b9db72e7257537cf0cb9e99e1c272c0663d","amp;dn":"Faster+2010+720p+BRRip+x264+Feel-Free","amp;tr":["udp%3A%2F%2Ftracker.openbittorrent.com%3A80","udp%3A%2F%2Fopen.demonii.com%3A1337","udp%3A%2F%2Ftracker.coppersurfer.tk%3A6969","udp%3A%2F%2Fexodus.desync.com%3A6969"],"infoHash":"936d7b9db72e7257537cf0cb9e99e1c272c0663d","infoHashBuffer":{"type":"Buffer","data":[147,109,123,157,183,46,114,87,83,124,240,203,158,153,225,194,114,192,102,61]},"announce":[],"urlList":[]}}